<?xml version="1.0" encoding="UTF-8" standalone="no"?>
<!DOCTYPE svg PUBLIC "-//W3C//DTD SVG 1.1//EN"
 "http://www.w3.org/Graphics/SVG/1.1/DTD/svg11.dtd">
<!-- Generated by graphviz version 2.40.1 (20161225.0304)
 -->
<!-- Title: %3 Pages: 1 -->
<svg width="392pt" height="764pt"
 viewBox="0.00 0.00 392.00 764.00" xmlns="http://www.w3.org/2000/svg" xmlns:xlink="http://www.w3.org/1999/xlink">
<g id="graph0" class="graph" transform="scale(1 1) rotate(0) translate(4 760)">
<title>%3</title>
<polygon fill="#ffffff" stroke="transparent" points="-4,4 -4,-760 388,-760 388,4 -4,4"/>
<!-- 0 -->
<g id="node1" class="node">
<title>0</title>
<ellipse fill="none" stroke="#000000" cx="300" cy="-738" rx="27" ry="18"/>
<text text-anchor="middle" x="300" y="-734.3" font-family="Times,serif" font-size="14.00" fill="#000000">0</text>
</g>
<!-- 2 -->
<g id="node2" class="node">
<title>2</title>
<ellipse fill="none" stroke="#000000" cx="357" cy="-378" rx="27" ry="18"/>
<text text-anchor="middle" x="357" y="-374.3" font-family="Times,serif" font-size="14.00" fill="#000000">2</text>
</g>
<!-- 0&#45;&#45;2 -->
<g id="edge1" class="edge">
<title>0&#45;&#45;2</title>
<path fill="none" stroke="#000000" d="M311.2614,-721.5531C327.8729,-695.6458 357,-643.2038 357,-594 357,-594 357,-594 357,-522 357,-476.75 357,-423.5017 357,-396.1854"/>
</g>
<!-- 3 -->
<g id="node3" class="node">
<title>3</title>
<ellipse fill="none" stroke="#000000" cx="245" cy="-666" rx="27" ry="18"/>
<text text-anchor="middle" x="245" y="-662.3" font-family="Times,serif" font-size="14.00" fill="#000000">3</text>
</g>
<!-- 0&#45;&#45;3 -->
<g id="edge2" class="edge">
<title>0&#45;&#45;3</title>
<path fill="none" stroke="#000000" d="M287.5196,-721.6621C278.5186,-709.8788 266.4207,-694.0416 257.431,-682.2733"/>
</g>
<!-- 8 -->
<g id="node4" class="node">
<title>8</title>
<ellipse fill="none" stroke="#000000" cx="192" cy="-450" rx="27" ry="18"/>
<text text-anchor="middle" x="192" y="-446.3" font-family="Times,serif" font-size="14.00" fill="#000000">8</text>
</g>
<!-- 0&#45;&#45;8 -->
<g id="edge3" class="edge">
<title>0&#45;&#45;8</title>
<path fill="none" stroke="#000000" d="M297.3304,-719.7716C294.3634,-701.3752 288.9221,-672.2919 281,-648 258.3308,-578.4883 218.9087,-500.6229 201.1433,-466.984"/>
</g>
<!-- 15 -->
<g id="node8" class="node">
<title>15</title>
<ellipse fill="none" stroke="#000000" cx="357" cy="-306" rx="27" ry="18"/>
<text text-anchor="middle" x="357" y="-302.3" font-family="Times,serif" font-size="14.00" fill="#000000">15</text>
</g>
<!-- 2&#45;&#45;15 -->
<g id="edge7" class="edge">
<title>2&#45;&#45;15</title>
<path fill="none" stroke="#000000" d="M357,-359.8314C357,-349 357,-335.2876 357,-324.4133"/>
</g>
<!-- 4 -->
<g id="node9" class="node">
<title>4</title>
<ellipse fill="none" stroke="#000000" cx="173" cy="-594" rx="27" ry="18"/>
<text text-anchor="middle" x="173" y="-590.3" font-family="Times,serif" font-size="14.00" fill="#000000">4</text>
</g>
<!-- 3&#45;&#45;4 -->
<g id="edge8" class="edge">
<title>3&#45;&#45;4</title>
<path fill="none" stroke="#000000" d="M229.7307,-650.7307C217.512,-638.512 200.4602,-621.4602 188.2473,-609.2473"/>
</g>
<!-- 17 -->
<g id="node10" class="node">
<title>17</title>
<ellipse fill="none" stroke="#000000" cx="302" cy="-234" rx="27" ry="18"/>
<text text-anchor="middle" x="302" y="-230.3" font-family="Times,serif" font-size="14.00" fill="#000000">17</text>
</g>
<!-- 3&#45;&#45;17 -->
<g id="edge9" class="edge">
<title>3&#45;&#45;17</title>
<path fill="none" stroke="#000000" d="M251.6107,-648.3163C264.0188,-614.0977 290.4089,-536.1845 300,-468 311.233,-388.1426 306.2486,-291.4386 303.4427,-252.0261"/>
</g>
<!-- 10 -->
<g id="node6" class="node">
<title>10</title>
<ellipse fill="none" stroke="#000000" cx="209" cy="-378" rx="27" ry="18"/>
<text text-anchor="middle" x="209" y="-374.3" font-family="Times,serif" font-size="14.00" fill="#000000">10</text>
</g>
<!-- 8&#45;&#45;10 -->
<g id="edge18" class="edge">
<title>8&#45;&#45;10</title>
<path fill="none" stroke="#000000" d="M196.2022,-432.2022C198.8177,-421.1252 202.1698,-406.928 204.7872,-395.8425"/>
</g>
<!-- 1 -->
<g id="node5" class="node">
<title>1</title>
<ellipse fill="none" stroke="#000000" cx="264" cy="-450" rx="27" ry="18"/>
<text text-anchor="middle" x="264" y="-446.3" font-family="Times,serif" font-size="14.00" fill="#000000">1</text>
</g>
<!-- 1&#45;&#45;2 -->
<g id="edge4" class="edge">
<title>1&#45;&#45;2</title>
<path fill="none" stroke="#000000" d="M281.9313,-436.1177C298.3995,-423.3681 322.6729,-404.5758 339.1237,-391.8397"/>
</g>
<!-- 1&#45;&#45;10 -->
<g id="edge5" class="edge">
<title>1&#45;&#45;10</title>
<path fill="none" stroke="#000000" d="M251.5196,-433.6621C242.5186,-421.8788 230.4207,-406.0416 221.431,-394.2733"/>
</g>
<!-- 12 -->
<g id="node7" class="node">
<title>12</title>
<ellipse fill="none" stroke="#000000" cx="228" cy="-306" rx="27" ry="18"/>
<text text-anchor="middle" x="228" y="-302.3" font-family="Times,serif" font-size="14.00" fill="#000000">12</text>
</g>
<!-- 1&#45;&#45;12 -->
<g id="edge6" class="edge">
<title>1&#45;&#45;12</title>
<path fill="none" stroke="#000000" d="M260.7232,-431.9501C257.284,-413.6925 251.4828,-384.7149 245,-360 241.808,-347.8311 237.558,-334.3311 234.106,-323.8733"/>
</g>
<!-- 11 -->
<g id="node17" class="node">
<title>11</title>
<ellipse fill="none" stroke="#000000" cx="147" cy="-306" rx="27" ry="18"/>
<text text-anchor="middle" x="147" y="-302.3" font-family="Times,serif" font-size="14.00" fill="#000000">11</text>
</g>
<!-- 10&#45;&#45;11 -->
<g id="edge20" class="edge">
<title>10&#45;&#45;11</title>
<path fill="none" stroke="#000000" d="M195.5469,-362.3771C185.2899,-350.4657 171.2115,-334.1166 160.8561,-322.091"/>
</g>
<!-- 13 -->
<g id="node18" class="node">
<title>13</title>
<ellipse fill="none" stroke="#000000" cx="147" cy="-234" rx="27" ry="18"/>
<text text-anchor="middle" x="147" y="-230.3" font-family="Times,serif" font-size="14.00" fill="#000000">13</text>
</g>
<!-- 12&#45;&#45;13 -->
<g id="edge22" class="edge">
<title>12&#45;&#45;13</title>
<path fill="none" stroke="#000000" d="M211.6084,-291.4297C197.5553,-278.938 177.4133,-261.034 163.3672,-248.5486"/>
</g>
<!-- 19 -->
<g id="node19" class="node">
<title>19</title>
<ellipse fill="none" stroke="#000000" cx="228" cy="-18" rx="27" ry="18"/>
<text text-anchor="middle" x="228" y="-14.3" font-family="Times,serif" font-size="14.00" fill="#000000">19</text>
</g>
<!-- 12&#45;&#45;19 -->
<g id="edge23" class="edge">
<title>12&#45;&#45;19</title>
<path fill="none" stroke="#000000" d="M228,-287.9843C228,-236.2634 228,-87.7213 228,-36.0089"/>
</g>
<!-- 15&#45;&#45;17 -->
<g id="edge26" class="edge">
<title>15&#45;&#45;17</title>
<path fill="none" stroke="#000000" d="M344.5196,-289.6621C335.5186,-277.8788 323.4207,-262.0416 314.431,-250.2733"/>
</g>
<!-- 15&#45;&#45;19 -->
<g id="edge27" class="edge">
<title>15&#45;&#45;19</title>
<path fill="none" stroke="#000000" d="M354.8102,-287.9668C352.1938,-269.4723 346.9989,-240.0845 338,-216 311.23,-144.3534 261.641,-67.2818 239.3601,-34.3862"/>
</g>
<!-- 5 -->
<g id="node11" class="node">
<title>5</title>
<ellipse fill="none" stroke="#000000" cx="82" cy="-522" rx="27" ry="18"/>
<text text-anchor="middle" x="82" y="-518.3" font-family="Times,serif" font-size="14.00" fill="#000000">5</text>
</g>
<!-- 4&#45;&#45;5 -->
<g id="edge10" class="edge">
<title>4&#45;&#45;5</title>
<path fill="none" stroke="#000000" d="M155.4543,-580.1177C139.3403,-567.3681 115.5888,-548.5758 99.4919,-535.8397"/>
</g>
<!-- 7 -->
<g id="node12" class="node">
<title>7</title>
<ellipse fill="none" stroke="#000000" cx="173" cy="-522" rx="27" ry="18"/>
<text text-anchor="middle" x="173" y="-518.3" font-family="Times,serif" font-size="14.00" fill="#000000">7</text>
</g>
<!-- 4&#45;&#45;7 -->
<g id="edge11" class="edge">
<title>4&#45;&#45;7</title>
<path fill="none" stroke="#000000" d="M173,-575.8314C173,-565 173,-551.2876 173,-540.4133"/>
</g>
<!-- 6 -->
<g id="node13" class="node">
<title>6</title>
<ellipse fill="none" stroke="#000000" cx="82" cy="-450" rx="27" ry="18"/>
<text text-anchor="middle" x="82" y="-446.3" font-family="Times,serif" font-size="14.00" fill="#000000">6</text>
</g>
<!-- 5&#45;&#45;6 -->
<g id="edge12" class="edge">
<title>5&#45;&#45;6</title>
<path fill="none" stroke="#000000" d="M82,-503.8314C82,-493 82,-479.2876 82,-468.4133"/>
</g>
<!-- 16 -->
<g id="node14" class="node">
<title>16</title>
<ellipse fill="none" stroke="#000000" cx="27" cy="-306" rx="27" ry="18"/>
<text text-anchor="middle" x="27" y="-302.3" font-family="Times,serif" font-size="14.00" fill="#000000">16</text>
</g>
<!-- 5&#45;&#45;16 -->
<g id="edge13" class="edge">
<title>5&#45;&#45;16</title>
<path fill="none" stroke="#000000" d="M68.4564,-506.0904C60.544,-495.8797 51.1331,-481.959 46,-468 27.7239,-418.2995 26.01,-354.7676 26.4137,-324.1306"/>
</g>
<!-- 7&#45;&#45;8 -->
<g id="edge16" class="edge">
<title>7&#45;&#45;8</title>
<path fill="none" stroke="#000000" d="M177.6966,-504.2022C180.6197,-493.1252 184.3662,-478.928 187.2916,-467.8425"/>
</g>
<!-- 9 -->
<g id="node15" class="node">
<title>9</title>
<ellipse fill="none" stroke="#000000" cx="137" cy="-378" rx="27" ry="18"/>
<text text-anchor="middle" x="137" y="-374.3" font-family="Times,serif" font-size="14.00" fill="#000000">9</text>
</g>
<!-- 7&#45;&#45;9 -->
<g id="edge17" class="edge">
<title>7&#45;&#45;9</title>
<path fill="none" stroke="#000000" d="M166.894,-504.1267C163.442,-493.6689 159.192,-480.1689 156,-468 149.5172,-443.2851 143.716,-414.3075 140.2768,-396.0499"/>
</g>
<!-- 6&#45;&#45;9 -->
<g id="edge14" class="edge">
<title>6&#45;&#45;9</title>
<path fill="none" stroke="#000000" d="M94.4804,-433.6621C103.4814,-421.8788 115.5793,-406.0416 124.569,-394.2733"/>
</g>
<!-- 14 -->
<g id="node16" class="node">
<title>14</title>
<ellipse fill="none" stroke="#000000" cx="109" cy="-162" rx="27" ry="18"/>
<text text-anchor="middle" x="109" y="-158.3" font-family="Times,serif" font-size="14.00" fill="#000000">14</text>
</g>
<!-- 6&#45;&#45;14 -->
<g id="edge15" class="edge">
<title>6&#45;&#45;14</title>
<path fill="none" stroke="#000000" d="M83.689,-431.9843C88.5378,-380.2634 102.4636,-231.7213 107.3117,-180.0089"/>
</g>
<!-- 16&#45;&#45;17 -->
<g id="edge28" class="edge">
<title>16&#45;&#45;17</title>
<path fill="none" stroke="#000000" d="M52.3784,-299.3555C104.767,-285.6392 224.3468,-254.331 276.6829,-240.6285"/>
</g>
<!-- 18 -->
<g id="node20" class="node">
<title>18</title>
<ellipse fill="none" stroke="#000000" cx="109" cy="-90" rx="27" ry="18"/>
<text text-anchor="middle" x="109" y="-86.3" font-family="Times,serif" font-size="14.00" fill="#000000">18</text>
</g>
<!-- 16&#45;&#45;18 -->
<g id="edge29" class="edge">
<title>16&#45;&#45;18</title>
<path fill="none" stroke="#000000" d="M30.2314,-287.8568C36.1065,-257.2011 50.0925,-193.6424 73,-144 79.2316,-130.4956 88.6082,-116.5606 96.2297,-106.2296"/>
</g>
<!-- 9&#45;&#45;11 -->
<g id="edge19" class="edge">
<title>9&#45;&#45;11</title>
<path fill="none" stroke="#000000" d="M139.5234,-359.8314C141.0278,-349 142.9323,-335.2876 144.4426,-324.4133"/>
</g>
<!-- 14&#45;&#45;18 -->
<g id="edge25" class="edge">
<title>14&#45;&#45;18</title>
<path fill="none" stroke="#000000" d="M109,-143.8314C109,-133 109,-119.2876 109,-108.4133"/>
</g>
<!-- 11&#45;&#45;13 -->
<g id="edge21" class="edge">
<title>11&#45;&#45;13</title>
<path fill="none" stroke="#000000" d="M147,-287.8314C147,-277 147,-263.2876 147,-252.4133"/>
</g>
<!-- 13&#45;&#45;14 -->
<g id="edge24" class="edge">
<title>13&#45;&#45;14</title>
<path fill="none" stroke="#000000" d="M137.9945,-216.937C132.0248,-205.626 124.2149,-190.8282 118.2048,-179.4407"/>
</g>
<!-- 18&#45;&#45;19 -->
<g id="edge30" class="edge">
<title>18&#45;&#45;19</title>
<path fill="none" stroke="#000000" d="M129.1867,-77.7862C151.0694,-64.5463 185.793,-43.537 207.7142,-30.2737"/>
</g>
</g>
</svg>
