<?xml version="1.0" encoding="UTF-8" standalone="no"?>
<!DOCTYPE svg PUBLIC "-//W3C//DTD SVG 1.1//EN"
 "http://www.w3.org/Graphics/SVG/1.1/DTD/svg11.dtd">
<!-- Generated by graphviz version 2.40.1 (20161225.0304)
 -->
<!-- Title: %3 Pages: 1 -->
<svg width="1656pt" height="836pt"
 viewBox="0.00 0.00 1656.00 836.00" xmlns="http://www.w3.org/2000/svg" xmlns:xlink="http://www.w3.org/1999/xlink">
<g id="graph0" class="graph" transform="scale(1 1) rotate(0) translate(4 832)">
<title>%3</title>
<polygon fill="#ffffff" stroke="transparent" points="-4,4 -4,-832 1652,-832 1652,4 -4,4"/>
<!-- 0 -->
<g id="node1" class="node">
<title>0</title>
<ellipse fill="none" stroke="#000000" cx="220" cy="-738" rx="27" ry="18"/>
<text text-anchor="middle" x="220" y="-734.3" font-family="Times,serif" font-size="14.00" fill="#000000">0</text>
</g>
<!-- 2 -->
<g id="node2" class="node">
<title>2</title>
<ellipse fill="none" stroke="#000000" cx="220" cy="-666" rx="27" ry="18"/>
<text text-anchor="middle" x="220" y="-662.3" font-family="Times,serif" font-size="14.00" fill="#000000">2</text>
</g>
<!-- 0&#45;&#45;2 -->
<g id="edge1" class="edge">
<title>0&#45;&#45;2</title>
<path fill="none" stroke="#000000" d="M220,-719.8314C220,-709 220,-695.2876 220,-684.4133"/>
</g>
<!-- 28 -->
<g id="node3" class="node">
<title>28</title>
<ellipse fill="none" stroke="#000000" cx="330" cy="-594" rx="27" ry="18"/>
<text text-anchor="middle" x="330" y="-590.3" font-family="Times,serif" font-size="14.00" fill="#000000">28</text>
</g>
<!-- 0&#45;&#45;28 -->
<g id="edge2" class="edge">
<title>0&#45;&#45;28</title>
<path fill="none" stroke="#000000" d="M246.118,-732.9889C271.8784,-726.5189 309.9384,-712.5111 328,-684 341.8002,-662.2157 338.6419,-631.1249 334.6528,-611.7739"/>
</g>
<!-- 36 -->
<g id="node4" class="node">
<title>36</title>
<ellipse fill="none" stroke="#000000" cx="165" cy="-522" rx="27" ry="18"/>
<text text-anchor="middle" x="165" y="-518.3" font-family="Times,serif" font-size="14.00" fill="#000000">36</text>
</g>
<!-- 0&#45;&#45;36 -->
<g id="edge3" class="edge">
<title>0&#45;&#45;36</title>
<path fill="none" stroke="#000000" d="M206.4564,-722.0904C198.544,-711.8797 189.1331,-697.959 184,-684 165.7239,-634.2995 164.01,-570.7676 164.4137,-540.1306"/>
</g>
<!-- 15 -->
<g id="node9" class="node">
<title>15</title>
<ellipse fill="none" stroke="#000000" cx="220" cy="-594" rx="27" ry="18"/>
<text text-anchor="middle" x="220" y="-590.3" font-family="Times,serif" font-size="14.00" fill="#000000">15</text>
</g>
<!-- 2&#45;&#45;15 -->
<g id="edge7" class="edge">
<title>2&#45;&#45;15</title>
<path fill="none" stroke="#000000" d="M220,-647.8314C220,-637 220,-623.2876 220,-612.4133"/>
</g>
<!-- 72 -->
<g id="node10" class="node">
<title>72</title>
<ellipse fill="none" stroke="#000000" cx="567" cy="-522" rx="27" ry="18"/>
<text text-anchor="middle" x="567" y="-518.3" font-family="Times,serif" font-size="14.00" fill="#000000">72</text>
</g>
<!-- 2&#45;&#45;72 -->
<g id="edge8" class="edge">
<title>2&#45;&#45;72</title>
<path fill="none" stroke="#000000" d="M240.8458,-654.1617C245.6975,-651.8092 250.93,-649.5807 256,-648 364.8496,-614.0638 414.2255,-673.8639 510,-612 536.411,-594.9403 552.8807,-560.8499 560.9657,-539.8707"/>
</g>
<!-- 29 -->
<g id="node57" class="node">
<title>29</title>
<ellipse fill="none" stroke="#000000" cx="309" cy="-522" rx="27" ry="18"/>
<text text-anchor="middle" x="309" y="-518.3" font-family="Times,serif" font-size="14.00" fill="#000000">29</text>
</g>
<!-- 28&#45;&#45;29 -->
<g id="edge58" class="edge">
<title>28&#45;&#45;29</title>
<path fill="none" stroke="#000000" d="M324.809,-576.2022C321.5782,-565.1252 317.4373,-550.928 314.2041,-539.8425"/>
</g>
<!-- 37 -->
<g id="node41" class="node">
<title>37</title>
<ellipse fill="none" stroke="#000000" cx="152" cy="-450" rx="27" ry="18"/>
<text text-anchor="middle" x="152" y="-446.3" font-family="Times,serif" font-size="14.00" fill="#000000">37</text>
</g>
<!-- 36&#45;&#45;37 -->
<g id="edge70" class="edge">
<title>36&#45;&#45;37</title>
<path fill="none" stroke="#000000" d="M161.7196,-503.8314C159.7338,-492.8334 157.2117,-478.865 155.2344,-467.9134"/>
</g>
<!-- 40 -->
<g id="node59" class="node">
<title>40</title>
<ellipse fill="none" stroke="#000000" cx="262" cy="-306" rx="27" ry="18"/>
<text text-anchor="middle" x="262" y="-302.3" font-family="Times,serif" font-size="14.00" fill="#000000">40</text>
</g>
<!-- 36&#45;&#45;40 -->
<g id="edge71" class="edge">
<title>36&#45;&#45;40</title>
<path fill="none" stroke="#000000" d="M172.7448,-504.6067C177.3475,-494.0804 183.2037,-480.3481 188,-468 206.4238,-420.568 203.2658,-405.5235 226,-360 232.6449,-346.6941 242.0086,-332.7529 249.5205,-322.3693"/>
</g>
<!-- 1 -->
<g id="node5" class="node">
<title>1</title>
<ellipse fill="none" stroke="#000000" cx="101" cy="-810" rx="27" ry="18"/>
<text text-anchor="middle" x="101" y="-806.3" font-family="Times,serif" font-size="14.00" fill="#000000">1</text>
</g>
<!-- 13 -->
<g id="node6" class="node">
<title>13</title>
<ellipse fill="none" stroke="#000000" cx="101" cy="-738" rx="27" ry="18"/>
<text text-anchor="middle" x="101" y="-734.3" font-family="Times,serif" font-size="14.00" fill="#000000">13</text>
</g>
<!-- 1&#45;&#45;13 -->
<g id="edge4" class="edge">
<title>1&#45;&#45;13</title>
<path fill="none" stroke="#000000" d="M101,-791.8314C101,-781 101,-767.2876 101,-756.4133"/>
</g>
<!-- 34 -->
<g id="node7" class="node">
<title>34</title>
<ellipse fill="none" stroke="#000000" cx="1401" cy="-522" rx="27" ry="18"/>
<text text-anchor="middle" x="1401" y="-518.3" font-family="Times,serif" font-size="14.00" fill="#000000">34</text>
</g>
<!-- 1&#45;&#45;34 -->
<g id="edge5" class="edge">
<title>1&#45;&#45;34</title>
<path fill="none" stroke="#000000" d="M128.1724,-808.7795C276.8166,-801.8183 992.2452,-764.5682 1196,-684 1279.7345,-650.89 1356.8674,-571.727 1387.2926,-537.8359"/>
</g>
<!-- 58 -->
<g id="node8" class="node">
<title>58</title>
<ellipse fill="none" stroke="#000000" cx="354" cy="-234" rx="27" ry="18"/>
<text text-anchor="middle" x="354" y="-230.3" font-family="Times,serif" font-size="14.00" fill="#000000">58</text>
</g>
<!-- 1&#45;&#45;58 -->
<g id="edge6" class="edge">
<title>1&#45;&#45;58</title>
<path fill="none" stroke="#000000" d="M82.475,-796.3281C53.3172,-773.0778 0,-722.7975 0,-666 0,-666 0,-666 0,-378 0,-307.2559 245.6413,-254.4507 327.6817,-238.7874"/>
</g>
<!-- 17 -->
<g id="node35" class="node">
<title>17</title>
<ellipse fill="none" stroke="#000000" cx="864" cy="-666" rx="27" ry="18"/>
<text text-anchor="middle" x="864" y="-662.3" font-family="Times,serif" font-size="14.00" fill="#000000">17</text>
</g>
<!-- 13&#45;&#45;17 -->
<g id="edge31" class="edge">
<title>13&#45;&#45;17</title>
<path fill="none" stroke="#000000" d="M126.2444,-731.4402C142.598,-727.4608 164.4211,-722.6534 184,-720 468.0723,-681.5019 550.9471,-757.6264 828,-684 833.2676,-682.6001 838.6673,-680.3823 843.6296,-677.9749"/>
</g>
<!-- 38 -->
<g id="node36" class="node">
<title>38</title>
<ellipse fill="none" stroke="#000000" cx="80" cy="-450" rx="27" ry="18"/>
<text text-anchor="middle" x="80" y="-446.3" font-family="Times,serif" font-size="14.00" fill="#000000">38</text>
</g>
<!-- 13&#45;&#45;38 -->
<g id="edge32" class="edge">
<title>13&#45;&#45;38</title>
<path fill="none" stroke="#000000" d="M93.1065,-720.6444C76.4421,-681.7754 40.509,-584.8015 57,-504 59.649,-491.0206 65.5387,-477.2983 70.6947,-466.9345"/>
</g>
<!-- 61 -->
<g id="node63" class="node">
<title>61</title>
<ellipse fill="none" stroke="#000000" cx="1257" cy="-450" rx="27" ry="18"/>
<text text-anchor="middle" x="1257" y="-446.3" font-family="Times,serif" font-size="14.00" fill="#000000">61</text>
</g>
<!-- 34&#45;&#45;61 -->
<g id="edge66" class="edge">
<title>34&#45;&#45;61</title>
<path fill="none" stroke="#000000" d="M1379.1295,-511.0647C1351.9066,-497.4533 1305.703,-474.3515 1278.6045,-460.8022"/>
</g>
<!-- 67 -->
<g id="node64" class="node">
<title>67</title>
<ellipse fill="none" stroke="#000000" cx="1312" cy="-234" rx="27" ry="18"/>
<text text-anchor="middle" x="1312" y="-230.3" font-family="Times,serif" font-size="14.00" fill="#000000">67</text>
</g>
<!-- 34&#45;&#45;67 -->
<g id="edge67" class="edge">
<title>34&#45;&#45;67</title>
<path fill="none" stroke="#000000" d="M1379.2586,-511.0077C1363.5317,-501.8045 1343.3041,-487.107 1333,-468 1294.182,-396.0194 1303.2872,-293.2524 1309.0597,-252.0764"/>
</g>
<!-- 59 -->
<g id="node75" class="node">
<title>59</title>
<ellipse fill="none" stroke="#000000" cx="1147" cy="-162" rx="27" ry="18"/>
<text text-anchor="middle" x="1147" y="-158.3" font-family="Times,serif" font-size="14.00" fill="#000000">59</text>
</g>
<!-- 58&#45;&#45;59 -->
<g id="edge97" class="edge">
<title>58&#45;&#45;59</title>
<path fill="none" stroke="#000000" d="M380.8389,-231.5632C502.1809,-220.546 998.8396,-175.4521 1120.1678,-164.4362"/>
</g>
<!-- 16 -->
<g id="node40" class="node">
<title>16</title>
<ellipse fill="none" stroke="#000000" cx="237" cy="-522" rx="27" ry="18"/>
<text text-anchor="middle" x="237" y="-518.3" font-family="Times,serif" font-size="14.00" fill="#000000">16</text>
</g>
<!-- 15&#45;&#45;16 -->
<g id="edge36" class="edge">
<title>15&#45;&#45;16</title>
<path fill="none" stroke="#000000" d="M224.2022,-576.2022C226.8177,-565.1252 230.1698,-550.928 232.7872,-539.8425"/>
</g>
<!-- 73 -->
<g id="node56" class="node">
<title>73</title>
<ellipse fill="none" stroke="#000000" cx="677" cy="-450" rx="27" ry="18"/>
<text text-anchor="middle" x="677" y="-446.3" font-family="Times,serif" font-size="14.00" fill="#000000">73</text>
</g>
<!-- 72&#45;&#45;73 -->
<g id="edge114" class="edge">
<title>72&#45;&#45;73</title>
<path fill="none" stroke="#000000" d="M586.4126,-509.2936C606.3961,-496.2135 637.3638,-475.9437 657.4115,-462.8216"/>
</g>
<!-- 74 -->
<g id="node69" class="node">
<title>74</title>
<ellipse fill="none" stroke="#000000" cx="563" cy="-378" rx="27" ry="18"/>
<text text-anchor="middle" x="563" y="-374.3" font-family="Times,serif" font-size="14.00" fill="#000000">74</text>
</g>
<!-- 72&#45;&#45;74 -->
<g id="edge115" class="edge">
<title>72&#45;&#45;74</title>
<path fill="none" stroke="#000000" d="M566.4934,-503.7623C565.724,-476.0633 564.2695,-423.7005 563.5025,-396.0896"/>
</g>
<!-- 3 -->
<g id="node11" class="node">
<title>3</title>
<ellipse fill="none" stroke="#000000" cx="1257" cy="-594" rx="27" ry="18"/>
<text text-anchor="middle" x="1257" y="-590.3" font-family="Times,serif" font-size="14.00" fill="#000000">3</text>
</g>
<!-- 4 -->
<g id="node12" class="node">
<title>4</title>
<ellipse fill="none" stroke="#000000" cx="1257" cy="-522" rx="27" ry="18"/>
<text text-anchor="middle" x="1257" y="-518.3" font-family="Times,serif" font-size="14.00" fill="#000000">4</text>
</g>
<!-- 3&#45;&#45;4 -->
<g id="edge9" class="edge">
<title>3&#45;&#45;4</title>
<path fill="none" stroke="#000000" d="M1257,-575.8314C1257,-565 1257,-551.2876 1257,-540.4133"/>
</g>
<!-- 22 -->
<g id="node13" class="node">
<title>22</title>
<ellipse fill="none" stroke="#000000" cx="1329" cy="-522" rx="27" ry="18"/>
<text text-anchor="middle" x="1329" y="-518.3" font-family="Times,serif" font-size="14.00" fill="#000000">22</text>
</g>
<!-- 3&#45;&#45;22 -->
<g id="edge10" class="edge">
<title>3&#45;&#45;22</title>
<path fill="none" stroke="#000000" d="M1272.2693,-578.7307C1284.488,-566.512 1301.5398,-549.4602 1313.7527,-537.2473"/>
</g>
<!-- 47 -->
<g id="node14" class="node">
<title>47</title>
<ellipse fill="none" stroke="#000000" cx="931" cy="-522" rx="27" ry="18"/>
<text text-anchor="middle" x="931" y="-518.3" font-family="Times,serif" font-size="14.00" fill="#000000">47</text>
</g>
<!-- 3&#45;&#45;47 -->
<g id="edge11" class="edge">
<title>3&#45;&#45;47</title>
<path fill="none" stroke="#000000" d="M1232.5577,-585.9904C1221.4842,-582.5686 1208.1725,-578.7403 1196,-576 1095.4878,-553.3721 1065.1234,-571.4087 967,-540 961.9421,-538.381 956.7145,-536.1369 951.8637,-533.7814"/>
</g>
<!-- 8 -->
<g id="node15" class="node">
<title>8</title>
<ellipse fill="none" stroke="#000000" cx="1369" cy="-450" rx="27" ry="18"/>
<text text-anchor="middle" x="1369" y="-446.3" font-family="Times,serif" font-size="14.00" fill="#000000">8</text>
</g>
<!-- 4&#45;&#45;8 -->
<g id="edge12" class="edge">
<title>4&#45;&#45;8</title>
<path fill="none" stroke="#000000" d="M1276.5089,-509.4586C1296.9404,-496.324 1328.8506,-475.8104 1349.3389,-462.6393"/>
</g>
<!-- 50 -->
<g id="node16" class="node">
<title>50</title>
<ellipse fill="none" stroke="#000000" cx="931" cy="-450" rx="27" ry="18"/>
<text text-anchor="middle" x="931" y="-446.3" font-family="Times,serif" font-size="14.00" fill="#000000">50</text>
</g>
<!-- 4&#45;&#45;50 -->
<g id="edge13" class="edge">
<title>4&#45;&#45;50</title>
<path fill="none" stroke="#000000" d="M1231.7593,-515.3733C1217.5026,-511.7531 1199.3212,-507.3404 1183,-504 1087.6523,-484.4855 1059.5536,-498.0969 967,-468 961.9497,-466.3577 956.7251,-464.1041 951.8749,-461.7469"/>
</g>
<!-- 25 -->
<g id="node26" class="node">
<title>25</title>
<ellipse fill="none" stroke="#000000" cx="1388" cy="-306" rx="27" ry="18"/>
<text text-anchor="middle" x="1388" y="-302.3" font-family="Times,serif" font-size="14.00" fill="#000000">25</text>
</g>
<!-- 22&#45;&#45;25 -->
<g id="edge51" class="edge">
<title>22&#45;&#45;25</title>
<path fill="none" stroke="#000000" d="M1349.783,-510.217C1370.1494,-498.1799 1398.9863,-479.65 1405,-468 1429.5161,-420.5062 1408.5666,-354.8404 1395.9216,-323.7216"/>
</g>
<!-- 48 -->
<g id="node70" class="node">
<title>48</title>
<ellipse fill="none" stroke="#000000" cx="859" cy="-450" rx="27" ry="18"/>
<text text-anchor="middle" x="859" y="-446.3" font-family="Times,serif" font-size="14.00" fill="#000000">48</text>
</g>
<!-- 47&#45;&#45;48 -->
<g id="edge83" class="edge">
<title>47&#45;&#45;48</title>
<path fill="none" stroke="#000000" d="M915.7307,-506.7307C903.512,-494.512 886.4602,-477.4602 874.2473,-465.2473"/>
</g>
<!-- 71 -->
<g id="node71" class="node">
<title>71</title>
<ellipse fill="none" stroke="#000000" cx="749" cy="-450" rx="27" ry="18"/>
<text text-anchor="middle" x="749" y="-446.3" font-family="Times,serif" font-size="14.00" fill="#000000">71</text>
</g>
<!-- 47&#45;&#45;71 -->
<g id="edge84" class="edge">
<title>47&#45;&#45;71</title>
<path fill="none" stroke="#000000" d="M909.4792,-510.7604C904.7541,-508.4277 899.7445,-506.0562 895,-504 852.9694,-485.7845 802.5917,-468.0173 773.3461,-458.0902"/>
</g>
<!-- 8&#45;&#45;25 -->
<g id="edge22" class="edge">
<title>8&#45;&#45;25</title>
<path fill="none" stroke="#000000" d="M1371.3679,-432.0535C1375.0088,-404.4592 1381.9434,-351.9026 1385.6022,-324.1727"/>
</g>
<!-- 51 -->
<g id="node72" class="node">
<title>51</title>
<ellipse fill="none" stroke="#000000" cx="876" cy="-378" rx="27" ry="18"/>
<text text-anchor="middle" x="876" y="-374.3" font-family="Times,serif" font-size="14.00" fill="#000000">51</text>
</g>
<!-- 50&#45;&#45;51 -->
<g id="edge88" class="edge">
<title>50&#45;&#45;51</title>
<path fill="none" stroke="#000000" d="M918.5196,-433.6621C909.5186,-421.8788 897.4207,-406.0416 888.431,-394.2733"/>
</g>
<!-- 5 -->
<g id="node17" class="node">
<title>5</title>
<ellipse fill="none" stroke="#000000" cx="1456" cy="-594" rx="27" ry="18"/>
<text text-anchor="middle" x="1456" y="-590.3" font-family="Times,serif" font-size="14.00" fill="#000000">5</text>
</g>
<!-- 23 -->
<g id="node18" class="node">
<title>23</title>
<ellipse fill="none" stroke="#000000" cx="1511" cy="-522" rx="27" ry="18"/>
<text text-anchor="middle" x="1511" y="-518.3" font-family="Times,serif" font-size="14.00" fill="#000000">23</text>
</g>
<!-- 5&#45;&#45;23 -->
<g id="edge14" class="edge">
<title>5&#45;&#45;23</title>
<path fill="none" stroke="#000000" d="M1468.4804,-577.6621C1477.4814,-565.8788 1489.5793,-550.0416 1498.569,-538.2733"/>
</g>
<!-- 30 -->
<g id="node19" class="node">
<title>30</title>
<ellipse fill="none" stroke="#000000" cx="677" cy="-522" rx="27" ry="18"/>
<text text-anchor="middle" x="677" y="-518.3" font-family="Times,serif" font-size="14.00" fill="#000000">30</text>
</g>
<!-- 5&#45;&#45;30 -->
<g id="edge15" class="edge">
<title>5&#45;&#45;30</title>
<path fill="none" stroke="#000000" d="M1429.2146,-590.6431C1396.9486,-586.6917 1341.0794,-580.1444 1293,-576 1035.6804,-553.8193 962.4051,-607.1004 713,-540 707.7367,-538.584 702.3387,-536.3598 697.3767,-533.9514"/>
</g>
<!-- 32 -->
<g id="node20" class="node">
<title>32</title>
<ellipse fill="none" stroke="#000000" cx="1479" cy="-450" rx="27" ry="18"/>
<text text-anchor="middle" x="1479" y="-446.3" font-family="Times,serif" font-size="14.00" fill="#000000">32</text>
</g>
<!-- 5&#45;&#45;32 -->
<g id="edge16" class="edge">
<title>5&#45;&#45;32</title>
<path fill="none" stroke="#000000" d="M1458.8665,-576.0535C1463.2739,-548.4592 1471.6683,-495.9026 1476.0974,-468.1727"/>
</g>
<!-- 24 -->
<g id="node29" class="node">
<title>24</title>
<ellipse fill="none" stroke="#000000" cx="1572" cy="-378" rx="27" ry="18"/>
<text text-anchor="middle" x="1572" y="-374.3" font-family="Times,serif" font-size="14.00" fill="#000000">24</text>
</g>
<!-- 23&#45;&#45;24 -->
<g id="edge52" class="edge">
<title>23&#45;&#45;24</title>
<path fill="none" stroke="#000000" d="M1518.358,-504.6302C1530.0825,-476.9528 1552.875,-423.1475 1564.6159,-395.4314"/>
</g>
<!-- 31 -->
<g id="node58" class="node">
<title>31</title>
<ellipse fill="none" stroke="#000000" cx="605" cy="-450" rx="27" ry="18"/>
<text text-anchor="middle" x="605" y="-446.3" font-family="Times,serif" font-size="14.00" fill="#000000">31</text>
</g>
<!-- 30&#45;&#45;31 -->
<g id="edge61" class="edge">
<title>30&#45;&#45;31</title>
<path fill="none" stroke="#000000" d="M661.7307,-506.7307C649.512,-494.512 632.4602,-477.4602 620.2473,-465.2473"/>
</g>
<!-- 33 -->
<g id="node30" class="node">
<title>33</title>
<ellipse fill="none" stroke="#000000" cx="1500" cy="-378" rx="27" ry="18"/>
<text text-anchor="middle" x="1500" y="-374.3" font-family="Times,serif" font-size="14.00" fill="#000000">33</text>
</g>
<!-- 32&#45;&#45;33 -->
<g id="edge63" class="edge">
<title>32&#45;&#45;33</title>
<path fill="none" stroke="#000000" d="M1484.191,-432.2022C1487.4218,-421.1252 1491.5627,-406.928 1494.7959,-395.8425"/>
</g>
<!-- 56 -->
<g id="node61" class="node">
<title>56</title>
<ellipse fill="none" stroke="#000000" cx="1147" cy="-306" rx="27" ry="18"/>
<text text-anchor="middle" x="1147" y="-302.3" font-family="Times,serif" font-size="14.00" fill="#000000">56</text>
</g>
<!-- 32&#45;&#45;56 -->
<g id="edge64" class="edge">
<title>32&#45;&#45;56</title>
<path fill="none" stroke="#000000" d="M1457.5495,-438.7823C1423.2501,-421.0369 1353.7329,-385.8538 1293,-360 1250.852,-342.0577 1200.5124,-324.202 1171.3059,-314.1838"/>
</g>
<!-- 6 -->
<g id="node21" class="node">
<title>6</title>
<ellipse fill="none" stroke="#000000" cx="1160" cy="-666" rx="27" ry="18"/>
<text text-anchor="middle" x="1160" y="-662.3" font-family="Times,serif" font-size="14.00" fill="#000000">6</text>
</g>
<!-- 7 -->
<g id="node22" class="node">
<title>7</title>
<ellipse fill="none" stroke="#000000" cx="1566" cy="-594" rx="27" ry="18"/>
<text text-anchor="middle" x="1566" y="-590.3" font-family="Times,serif" font-size="14.00" fill="#000000">7</text>
</g>
<!-- 6&#45;&#45;7 -->
<g id="edge17" class="edge">
<title>6&#45;&#45;7</title>
<path fill="none" stroke="#000000" d="M1187.0823,-664.4662C1248.3584,-660.4642 1401.8839,-647.4405 1525,-612 1531.4246,-610.1506 1538.1597,-607.5124 1544.2716,-604.8241"/>
</g>
<!-- 11 -->
<g id="node23" class="node">
<title>11</title>
<ellipse fill="none" stroke="#000000" cx="1160" cy="-594" rx="27" ry="18"/>
<text text-anchor="middle" x="1160" y="-590.3" font-family="Times,serif" font-size="14.00" fill="#000000">11</text>
</g>
<!-- 6&#45;&#45;11 -->
<g id="edge18" class="edge">
<title>6&#45;&#45;11</title>
<path fill="none" stroke="#000000" d="M1160,-647.8314C1160,-637 1160,-623.2876 1160,-612.4133"/>
</g>
<!-- 49 -->
<g id="node24" class="node">
<title>49</title>
<ellipse fill="none" stroke="#000000" cx="1003" cy="-522" rx="27" ry="18"/>
<text text-anchor="middle" x="1003" y="-518.3" font-family="Times,serif" font-size="14.00" fill="#000000">49</text>
</g>
<!-- 6&#45;&#45;49 -->
<g id="edge19" class="edge">
<title>6&#45;&#45;49</title>
<path fill="none" stroke="#000000" d="M1144.082,-651.4001C1113.9906,-623.8003 1049.084,-564.2681 1018.9601,-536.6386"/>
</g>
<!-- 7&#45;&#45;8 -->
<g id="edge20" class="edge">
<title>7&#45;&#45;8</title>
<path fill="none" stroke="#000000" d="M1567.2496,-575.6947C1567.5868,-555.5798 1564.9169,-523.5377 1547,-504 1536.496,-492.5459 1441.1419,-467.7843 1394.4836,-456.2049"/>
</g>
<!-- 9 -->
<g id="node25" class="node">
<title>9</title>
<ellipse fill="none" stroke="#000000" cx="1621" cy="-522" rx="27" ry="18"/>
<text text-anchor="middle" x="1621" y="-518.3" font-family="Times,serif" font-size="14.00" fill="#000000">9</text>
</g>
<!-- 7&#45;&#45;9 -->
<g id="edge21" class="edge">
<title>7&#45;&#45;9</title>
<path fill="none" stroke="#000000" d="M1578.4804,-577.6621C1587.4814,-565.8788 1599.5793,-550.0416 1608.569,-538.2733"/>
</g>
<!-- 12 -->
<g id="node31" class="node">
<title>12</title>
<ellipse fill="none" stroke="#000000" cx="1075" cy="-522" rx="27" ry="18"/>
<text text-anchor="middle" x="1075" y="-518.3" font-family="Times,serif" font-size="14.00" fill="#000000">12</text>
</g>
<!-- 11&#45;&#45;12 -->
<g id="edge27" class="edge">
<title>11&#45;&#45;12</title>
<path fill="none" stroke="#000000" d="M1143.2067,-579.7751C1128.3051,-567.1525 1106.6495,-548.809 1091.7584,-536.1953"/>
</g>
<!-- 66 -->
<g id="node32" class="node">
<title>66</title>
<ellipse fill="none" stroke="#000000" cx="1240" cy="-234" rx="27" ry="18"/>
<text text-anchor="middle" x="1240" y="-230.3" font-family="Times,serif" font-size="14.00" fill="#000000">66</text>
</g>
<!-- 11&#45;&#45;66 -->
<g id="edge28" class="edge">
<title>11&#45;&#45;66</title>
<path fill="none" stroke="#000000" d="M1168.4993,-576.7402C1180.7719,-550.1829 1202,-497.3958 1202,-450 1202,-450 1202,-450 1202,-378 1202,-330.9424 1221.2064,-278.0126 1232.3101,-251.3446"/>
</g>
<!-- 49&#45;&#45;50 -->
<g id="edge86" class="edge">
<title>49&#45;&#45;50</title>
<path fill="none" stroke="#000000" d="M987.7307,-506.7307C975.512,-494.512 958.4602,-477.4602 946.2473,-465.2473"/>
</g>
<!-- 52 -->
<g id="node33" class="node">
<title>52</title>
<ellipse fill="none" stroke="#000000" cx="1003" cy="-450" rx="27" ry="18"/>
<text text-anchor="middle" x="1003" y="-446.3" font-family="Times,serif" font-size="14.00" fill="#000000">52</text>
</g>
<!-- 49&#45;&#45;52 -->
<g id="edge87" class="edge">
<title>49&#45;&#45;52</title>
<path fill="none" stroke="#000000" d="M1003,-503.8314C1003,-493 1003,-479.2876 1003,-468.4133"/>
</g>
<!-- 10 -->
<g id="node27" class="node">
<title>10</title>
<ellipse fill="none" stroke="#000000" cx="1589" cy="-450" rx="27" ry="18"/>
<text text-anchor="middle" x="1589" y="-446.3" font-family="Times,serif" font-size="14.00" fill="#000000">10</text>
</g>
<!-- 9&#45;&#45;10 -->
<g id="edge23" class="edge">
<title>9&#45;&#45;10</title>
<path fill="none" stroke="#000000" d="M1613.2537,-504.5708C1608.2225,-493.2506 1601.6919,-478.5568 1596.675,-467.2687"/>
</g>
<!-- 65 -->
<g id="node28" class="node">
<title>65</title>
<ellipse fill="none" stroke="#000000" cx="1460" cy="-306" rx="27" ry="18"/>
<text text-anchor="middle" x="1460" y="-302.3" font-family="Times,serif" font-size="14.00" fill="#000000">65</text>
</g>
<!-- 9&#45;&#45;65 -->
<g id="edge24" class="edge">
<title>9&#45;&#45;65</title>
<path fill="none" stroke="#000000" d="M1625.7746,-504.0231C1633.3584,-471.0053 1643.8876,-400.393 1608,-360 1576.6631,-324.7289 1520.359,-312.4728 1486.9632,-308.2299"/>
</g>
<!-- 10&#45;&#45;24 -->
<g id="edge25" class="edge">
<title>10&#45;&#45;24</title>
<path fill="none" stroke="#000000" d="M1584.7978,-432.2022C1582.1823,-421.1252 1578.8302,-406.928 1576.2128,-395.8425"/>
</g>
<!-- 10&#45;&#45;33 -->
<g id="edge26" class="edge">
<title>10&#45;&#45;33</title>
<path fill="none" stroke="#000000" d="M1571.4165,-435.7751C1555.7122,-423.0706 1532.8441,-404.5705 1517.2442,-391.9503"/>
</g>
<!-- 65&#45;&#45;66 -->
<g id="edge107" class="edge">
<title>65&#45;&#45;66</title>
<path fill="none" stroke="#000000" d="M1439.0306,-294.5265C1434.1853,-292.1551 1428.9866,-289.8266 1424,-288 1360.4347,-264.7155 1339.5653,-275.2845 1276,-252 1271.0134,-250.1734 1265.8147,-247.8449 1260.9694,-245.4735"/>
</g>
<!-- 69 -->
<g id="node62" class="node">
<title>69</title>
<ellipse fill="none" stroke="#000000" cx="1460" cy="-18" rx="27" ry="18"/>
<text text-anchor="middle" x="1460" y="-14.3" font-family="Times,serif" font-size="14.00" fill="#000000">69</text>
</g>
<!-- 65&#45;&#45;69 -->
<g id="edge108" class="edge">
<title>65&#45;&#45;69</title>
<path fill="none" stroke="#000000" d="M1460,-287.9843C1460,-236.2634 1460,-87.7213 1460,-36.0089"/>
</g>
<!-- 24&#45;&#45;25 -->
<g id="edge53" class="edge">
<title>24&#45;&#45;25</title>
<path fill="none" stroke="#000000" d="M1550.545,-366.6041C1545.8158,-364.2811 1540.7879,-361.9531 1536,-360 1487.5872,-340.251 1472.4128,-343.749 1424,-324 1419.2121,-322.0469 1414.1842,-319.7189 1409.455,-317.3959"/>
</g>
<!-- 33&#45;&#45;69 -->
<g id="edge65" class="edge">
<title>33&#45;&#45;69</title>
<path fill="none" stroke="#000000" d="M1503.108,-359.8777C1507.5016,-332.6417 1515,-279.4948 1515,-234 1515,-234 1515,-234 1515,-162 1515,-113.0265 1486.8949,-60.4856 1470.8662,-34.5031"/>
</g>
<!-- 12&#45;&#45;52 -->
<g id="edge29" class="edge">
<title>12&#45;&#45;52</title>
<path fill="none" stroke="#000000" d="M1059.7307,-506.7307C1047.512,-494.512 1030.4602,-477.4602 1018.2473,-465.2473"/>
</g>
<!-- 62 -->
<g id="node34" class="node">
<title>62</title>
<ellipse fill="none" stroke="#000000" cx="1113" cy="-450" rx="27" ry="18"/>
<text text-anchor="middle" x="1113" y="-446.3" font-family="Times,serif" font-size="14.00" fill="#000000">62</text>
</g>
<!-- 12&#45;&#45;62 -->
<g id="edge30" class="edge">
<title>12&#45;&#45;62</title>
<path fill="none" stroke="#000000" d="M1084.0055,-504.937C1089.9752,-493.626 1097.7851,-478.8282 1103.7952,-467.4407"/>
</g>
<!-- 53 -->
<g id="node73" class="node">
<title>53</title>
<ellipse fill="none" stroke="#000000" cx="965" cy="-378" rx="27" ry="18"/>
<text text-anchor="middle" x="965" y="-374.3" font-family="Times,serif" font-size="14.00" fill="#000000">53</text>
</g>
<!-- 52&#45;&#45;53 -->
<g id="edge90" class="edge">
<title>52&#45;&#45;53</title>
<path fill="none" stroke="#000000" d="M993.9945,-432.937C988.0248,-421.626 980.2149,-406.8282 974.2048,-395.4407"/>
</g>
<!-- 63 -->
<g id="node78" class="node">
<title>63</title>
<ellipse fill="none" stroke="#000000" cx="1257" cy="-378" rx="27" ry="18"/>
<text text-anchor="middle" x="1257" y="-374.3" font-family="Times,serif" font-size="14.00" fill="#000000">63</text>
</g>
<!-- 62&#45;&#45;63 -->
<g id="edge102" class="edge">
<title>62&#45;&#45;63</title>
<path fill="none" stroke="#000000" d="M1134.8705,-439.0647C1162.0934,-425.4533 1208.297,-402.3515 1235.3955,-388.8022"/>
</g>
<!-- 76 -->
<g id="node79" class="node">
<title>76</title>
<ellipse fill="none" stroke="#000000" cx="1109" cy="-378" rx="27" ry="18"/>
<text text-anchor="middle" x="1109" y="-374.3" font-family="Times,serif" font-size="14.00" fill="#000000">76</text>
</g>
<!-- 62&#45;&#45;76 -->
<g id="edge103" class="edge">
<title>62&#45;&#45;76</title>
<path fill="none" stroke="#000000" d="M1111.9906,-431.8314C1111.3889,-421 1110.6271,-407.2876 1110.023,-396.4133"/>
</g>
<!-- 18 -->
<g id="node43" class="node">
<title>18</title>
<ellipse fill="none" stroke="#000000" cx="474" cy="-594" rx="27" ry="18"/>
<text text-anchor="middle" x="474" y="-590.3" font-family="Times,serif" font-size="14.00" fill="#000000">18</text>
</g>
<!-- 17&#45;&#45;18 -->
<g id="edge39" class="edge">
<title>17&#45;&#45;18</title>
<path fill="none" stroke="#000000" d="M843.1692,-654.1131C838.3167,-651.7631 833.0801,-649.5479 828,-648 707.9789,-611.4301 671.3683,-634.8624 548,-612 531.6194,-608.9644 513.4371,-604.5565 499.1947,-600.8625"/>
</g>
<!-- 60 -->
<g id="node44" class="node">
<title>60</title>
<ellipse fill="none" stroke="#000000" cx="1147" cy="-522" rx="27" ry="18"/>
<text text-anchor="middle" x="1147" y="-518.3" font-family="Times,serif" font-size="14.00" fill="#000000">60</text>
</g>
<!-- 17&#45;&#45;60 -->
<g id="edge40" class="edge">
<title>17&#45;&#45;60</title>
<path fill="none" stroke="#000000" d="M873.4244,-649.1161C885.8756,-628.4663 909.803,-594.0401 940,-576 1006.6739,-536.168 1037.6661,-565.5761 1111,-540 1116.0144,-538.2512 1121.2244,-535.9543 1126.0719,-533.5888"/>
</g>
<!-- 39 -->
<g id="node65" class="node">
<title>39</title>
<ellipse fill="none" stroke="#000000" cx="262" cy="-378" rx="27" ry="18"/>
<text text-anchor="middle" x="262" y="-374.3" font-family="Times,serif" font-size="14.00" fill="#000000">39</text>
</g>
<!-- 38&#45;&#45;39 -->
<g id="edge72" class="edge">
<title>38&#45;&#45;39</title>
<path fill="none" stroke="#000000" d="M101.5208,-438.7604C106.2459,-436.4277 111.2555,-434.0562 116,-432 158.0306,-413.7845 208.4083,-396.0173 237.6539,-386.0902"/>
</g>
<!-- 14 -->
<g id="node37" class="node">
<title>14</title>
<ellipse fill="none" stroke="#000000" cx="292" cy="-666" rx="27" ry="18"/>
<text text-anchor="middle" x="292" y="-662.3" font-family="Times,serif" font-size="14.00" fill="#000000">14</text>
</g>
<!-- 14&#45;&#45;15 -->
<g id="edge33" class="edge">
<title>14&#45;&#45;15</title>
<path fill="none" stroke="#000000" d="M276.7307,-650.7307C264.512,-638.512 247.4602,-621.4602 235.2473,-609.2473"/>
</g>
<!-- 42 -->
<g id="node38" class="node">
<title>42</title>
<ellipse fill="none" stroke="#000000" cx="381" cy="-522" rx="27" ry="18"/>
<text text-anchor="middle" x="381" y="-518.3" font-family="Times,serif" font-size="14.00" fill="#000000">42</text>
</g>
<!-- 14&#45;&#45;42 -->
<g id="edge34" class="edge">
<title>14&#45;&#45;42</title>
<path fill="none" stroke="#000000" d="M287.6655,-648.1081C284.0452,-628.9348 281.2919,-598.2591 294,-576 297.768,-569.4001 335.32,-547.5234 359.8415,-533.7235"/>
</g>
<!-- 45 -->
<g id="node39" class="node">
<title>45</title>
<ellipse fill="none" stroke="#000000" cx="584" cy="-594" rx="27" ry="18"/>
<text text-anchor="middle" x="584" y="-590.3" font-family="Times,serif" font-size="14.00" fill="#000000">45</text>
</g>
<!-- 14&#45;&#45;45 -->
<g id="edge35" class="edge">
<title>14&#45;&#45;45</title>
<path fill="none" stroke="#000000" d="M318.4747,-662.1097C364.7551,-654.9123 463.0561,-637.8552 543,-612 549.2131,-609.9906 555.7632,-607.3618 561.7602,-604.7366"/>
</g>
<!-- 43 -->
<g id="node42" class="node">
<title>43</title>
<ellipse fill="none" stroke="#000000" cx="381" cy="-450" rx="27" ry="18"/>
<text text-anchor="middle" x="381" y="-446.3" font-family="Times,serif" font-size="14.00" fill="#000000">43</text>
</g>
<!-- 42&#45;&#45;43 -->
<g id="edge77" class="edge">
<title>42&#45;&#45;43</title>
<path fill="none" stroke="#000000" d="M381,-503.8314C381,-493 381,-479.2876 381,-468.4133"/>
</g>
<!-- 46 -->
<g id="node49" class="node">
<title>46</title>
<ellipse fill="none" stroke="#000000" cx="859" cy="-522" rx="27" ry="18"/>
<text text-anchor="middle" x="859" y="-518.3" font-family="Times,serif" font-size="14.00" fill="#000000">46</text>
</g>
<!-- 45&#45;&#45;46 -->
<g id="edge80" class="edge">
<title>45&#45;&#45;46</title>
<path fill="none" stroke="#000000" d="M609.3784,-587.3555C661.767,-573.6392 781.3468,-542.331 833.6829,-528.6285"/>
</g>
<!-- 45&#45;&#45;74 -->
<g id="edge81" class="edge">
<title>45&#45;&#45;74</title>
<path fill="none" stroke="#000000" d="M564.9709,-580.8531C552.7242,-571.1609 537.8589,-556.7801 531,-540 510.4991,-489.8448 537.7109,-425.4473 553.3589,-395.1747"/>
</g>
<!-- 16&#45;&#45;37 -->
<g id="edge37" class="edge">
<title>16&#45;&#45;37</title>
<path fill="none" stroke="#000000" d="M220.2067,-507.7751C205.3051,-495.1525 183.6495,-476.809 168.7584,-464.1953"/>
</g>
<!-- 16&#45;&#45;43 -->
<g id="edge38" class="edge">
<title>16&#45;&#45;43</title>
<path fill="none" stroke="#000000" d="M258.8705,-511.0647C286.0934,-497.4533 332.297,-474.3515 359.3955,-460.8022"/>
</g>
<!-- 44 -->
<g id="node46" class="node">
<title>44</title>
<ellipse fill="none" stroke="#000000" cx="491" cy="-378" rx="27" ry="18"/>
<text text-anchor="middle" x="491" y="-374.3" font-family="Times,serif" font-size="14.00" fill="#000000">44</text>
</g>
<!-- 43&#45;&#45;44 -->
<g id="edge78" class="edge">
<title>43&#45;&#45;44</title>
<path fill="none" stroke="#000000" d="M400.4126,-437.2936C420.3961,-424.2135 451.3638,-403.9437 471.4115,-390.8216"/>
</g>
<!-- 35 -->
<g id="node45" class="node">
<title>35</title>
<ellipse fill="none" stroke="#000000" cx="93" cy="-522" rx="27" ry="18"/>
<text text-anchor="middle" x="93" y="-518.3" font-family="Times,serif" font-size="14.00" fill="#000000">35</text>
</g>
<!-- 18&#45;&#45;35 -->
<g id="edge41" class="edge">
<title>18&#45;&#45;35</title>
<path fill="none" stroke="#000000" d="M453.1827,-582.0683C448.3295,-579.7206 443.0892,-577.5177 438,-576 305.5037,-536.4881 261.4963,-579.5119 129,-540 123.9108,-538.4823 118.6705,-536.2794 113.8173,-533.9317"/>
</g>
<!-- 18&#45;&#45;44 -->
<g id="edge42" class="edge">
<title>18&#45;&#45;44</title>
<path fill="none" stroke="#000000" d="M475.4202,-575.9555C478.6202,-535.2967 486.3644,-436.8988 489.5719,-396.1451"/>
</g>
<!-- 60&#45;&#45;61 -->
<g id="edge99" class="edge">
<title>60&#45;&#45;61</title>
<path fill="none" stroke="#000000" d="M1166.4126,-509.2936C1186.3961,-496.2135 1217.3638,-475.9437 1237.4115,-462.8216"/>
</g>
<!-- 77 -->
<g id="node77" class="node">
<title>77</title>
<ellipse fill="none" stroke="#000000" cx="1054" cy="-234" rx="27" ry="18"/>
<text text-anchor="middle" x="1054" y="-230.3" font-family="Times,serif" font-size="14.00" fill="#000000">77</text>
</g>
<!-- 60&#45;&#45;77 -->
<g id="edge100" class="edge">
<title>60&#45;&#45;77</title>
<path fill="none" stroke="#000000" d="M1125.0139,-511.3276C1108.8088,-502.2068 1087.7839,-487.4683 1077,-468 1037.3417,-396.4044 1045.696,-293.4193 1051.1824,-252.1307"/>
</g>
<!-- 35&#45;&#45;38 -->
<g id="edge69" class="edge">
<title>35&#45;&#45;38</title>
<path fill="none" stroke="#000000" d="M89.7196,-503.8314C87.7338,-492.8334 85.2117,-478.865 83.2344,-467.9134"/>
</g>
<!-- 35&#45;&#45;37 -->
<g id="edge68" class="edge">
<title>35&#45;&#45;37</title>
<path fill="none" stroke="#000000" d="M106.094,-506.0209C115.8713,-494.0892 129.1741,-477.8553 138.9426,-465.9345"/>
</g>
<!-- 75 -->
<g id="node68" class="node">
<title>75</title>
<ellipse fill="none" stroke="#000000" cx="622" cy="-306" rx="27" ry="18"/>
<text text-anchor="middle" x="622" y="-302.3" font-family="Times,serif" font-size="14.00" fill="#000000">75</text>
</g>
<!-- 44&#45;&#45;75 -->
<g id="edge79" class="edge">
<title>44&#45;&#45;75</title>
<path fill="none" stroke="#000000" d="M512.0474,-366.432C536.4934,-352.996 576.5811,-330.9631 601.0048,-317.5393"/>
</g>
<!-- 19 -->
<g id="node47" class="node">
<title>19</title>
<ellipse fill="none" stroke="#000000" cx="792" cy="-666" rx="27" ry="18"/>
<text text-anchor="middle" x="792" y="-662.3" font-family="Times,serif" font-size="14.00" fill="#000000">19</text>
</g>
<!-- 41 -->
<g id="node48" class="node">
<title>41</title>
<ellipse fill="none" stroke="#000000" cx="402" cy="-594" rx="27" ry="18"/>
<text text-anchor="middle" x="402" y="-590.3" font-family="Times,serif" font-size="14.00" fill="#000000">41</text>
</g>
<!-- 19&#45;&#45;41 -->
<g id="edge43" class="edge">
<title>19&#45;&#45;41</title>
<path fill="none" stroke="#000000" d="M765.5158,-661.9108C741.8034,-658.2531 706.0827,-652.7517 675,-648 569.6819,-631.8998 539.5538,-644.2169 438,-612 432.938,-610.3941 427.7087,-608.1553 422.8575,-605.8009"/>
</g>
<!-- 19&#45;&#45;46 -->
<g id="edge44" class="edge">
<title>19&#45;&#45;46</title>
<path fill="none" stroke="#000000" d="M800.5251,-648.5348C805.6468,-637.983 812.2618,-624.2492 818,-612 829.7997,-586.8115 843.0839,-557.4615 851.2486,-539.3038"/>
</g>
<!-- 54 -->
<g id="node50" class="node">
<title>54</title>
<ellipse fill="none" stroke="#000000" cx="876" cy="-306" rx="27" ry="18"/>
<text text-anchor="middle" x="876" y="-302.3" font-family="Times,serif" font-size="14.00" fill="#000000">54</text>
</g>
<!-- 19&#45;&#45;54 -->
<g id="edge45" class="edge">
<title>19&#45;&#45;54</title>
<path fill="none" stroke="#000000" d="M794.4864,-647.855C798.0013,-620.5902 804,-567.4068 804,-522 804,-522 804,-522 804,-450 804,-398.5704 841.1953,-346.6802 862.1177,-321.5602"/>
</g>
<!-- 41&#45;&#45;42 -->
<g id="edge75" class="edge">
<title>41&#45;&#45;42</title>
<path fill="none" stroke="#000000" d="M396.809,-576.2022C393.5782,-565.1252 389.4373,-550.928 386.2041,-539.8425"/>
</g>
<!-- 79 -->
<g id="node67" class="node">
<title>79</title>
<ellipse fill="none" stroke="#000000" cx="622" cy="-234" rx="27" ry="18"/>
<text text-anchor="middle" x="622" y="-230.3" font-family="Times,serif" font-size="14.00" fill="#000000">79</text>
</g>
<!-- 41&#45;&#45;79 -->
<g id="edge76" class="edge">
<title>41&#45;&#45;79</title>
<path fill="none" stroke="#000000" d="M408.8804,-576.5786C418.8153,-549.8102 436,-496.7511 436,-450 436,-450 436,-450 436,-378 436,-297.7531 545.5868,-255.8564 596.5275,-240.7159"/>
</g>
<!-- 46&#45;&#45;48 -->
<g id="edge82" class="edge">
<title>46&#45;&#45;48</title>
<path fill="none" stroke="#000000" d="M859,-503.8314C859,-493 859,-479.2876 859,-468.4133"/>
</g>
<!-- 20 -->
<g id="node51" class="node">
<title>20</title>
<ellipse fill="none" stroke="#000000" cx="976" cy="-666" rx="27" ry="18"/>
<text text-anchor="middle" x="976" y="-662.3" font-family="Times,serif" font-size="14.00" fill="#000000">20</text>
</g>
<!-- 20&#45;&#45;23 -->
<g id="edge47" class="edge">
<title>20&#45;&#45;23</title>
<path fill="none" stroke="#000000" d="M1002.7147,-662.5592C1032.336,-658.7888 1081.5465,-652.6575 1124,-648 1205.6781,-639.0392 1430.7774,-666.8033 1492,-612 1511.9897,-594.1063 1513.9255,-560.9383 1512.8944,-540.2497"/>
</g>
<!-- 21 -->
<g id="node52" class="node">
<title>21</title>
<ellipse fill="none" stroke="#000000" cx="976" cy="-594" rx="27" ry="18"/>
<text text-anchor="middle" x="976" y="-590.3" font-family="Times,serif" font-size="14.00" fill="#000000">21</text>
</g>
<!-- 20&#45;&#45;21 -->
<g id="edge46" class="edge">
<title>20&#45;&#45;21</title>
<path fill="none" stroke="#000000" d="M976,-647.8314C976,-637 976,-623.2876 976,-612.4133"/>
</g>
<!-- 27 -->
<g id="node53" class="node">
<title>27</title>
<ellipse fill="none" stroke="#000000" cx="694" cy="-594" rx="27" ry="18"/>
<text text-anchor="middle" x="694" y="-590.3" font-family="Times,serif" font-size="14.00" fill="#000000">27</text>
</g>
<!-- 20&#45;&#45;27 -->
<g id="edge48" class="edge">
<title>20&#45;&#45;27</title>
<path fill="none" stroke="#000000" d="M950.477,-659.4835C896.7874,-645.7755 772.7229,-614.0995 719.2621,-600.4499"/>
</g>
<!-- 21&#45;&#45;22 -->
<g id="edge49" class="edge">
<title>21&#45;&#45;22</title>
<path fill="none" stroke="#000000" d="M1002.7384,-590.4781C1068.8852,-581.6004 1238.7461,-557.7499 1293,-540 1298.0474,-538.3487 1303.2708,-536.0914 1308.1207,-533.7335"/>
</g>
<!-- 70 -->
<g id="node54" class="node">
<title>70</title>
<ellipse fill="none" stroke="#000000" cx="749" cy="-522" rx="27" ry="18"/>
<text text-anchor="middle" x="749" y="-518.3" font-family="Times,serif" font-size="14.00" fill="#000000">70</text>
</g>
<!-- 21&#45;&#45;70 -->
<g id="edge50" class="edge">
<title>21&#45;&#45;70</title>
<path fill="none" stroke="#000000" d="M951.2749,-586.1577C907.6095,-572.3078 817.3383,-543.6756 773.6946,-529.8327"/>
</g>
<!-- 27&#45;&#45;30 -->
<g id="edge57" class="edge">
<title>27&#45;&#45;30</title>
<path fill="none" stroke="#000000" d="M689.7978,-576.2022C687.1823,-565.1252 683.8302,-550.928 681.2128,-539.8425"/>
</g>
<!-- 70&#45;&#45;73 -->
<g id="edge112" class="edge">
<title>70&#45;&#45;73</title>
<path fill="none" stroke="#000000" d="M733.7307,-506.7307C721.512,-494.512 704.4602,-477.4602 692.2473,-465.2473"/>
</g>
<!-- 70&#45;&#45;71 -->
<g id="edge111" class="edge">
<title>70&#45;&#45;71</title>
<path fill="none" stroke="#000000" d="M749,-503.8314C749,-493 749,-479.2876 749,-468.4133"/>
</g>
<!-- 26 -->
<g id="node55" class="node">
<title>26</title>
<ellipse fill="none" stroke="#000000" cx="639" cy="-666" rx="27" ry="18"/>
<text text-anchor="middle" x="639" y="-662.3" font-family="Times,serif" font-size="14.00" fill="#000000">26</text>
</g>
<!-- 26&#45;&#45;28 -->
<g id="edge55" class="edge">
<title>26&#45;&#45;28</title>
<path fill="none" stroke="#000000" d="M612.0253,-663.0983C562.3076,-657.2206 453.3168,-641.8559 366,-612 360.975,-610.2818 355.7607,-607.9974 350.9124,-605.6343"/>
</g>
<!-- 26&#45;&#45;27 -->
<g id="edge54" class="edge">
<title>26&#45;&#45;27</title>
<path fill="none" stroke="#000000" d="M651.4804,-649.6621C660.4814,-637.8788 672.5793,-622.0416 681.569,-610.2733"/>
</g>
<!-- 26&#45;&#45;73 -->
<g id="edge56" class="edge">
<title>26&#45;&#45;73</title>
<path fill="none" stroke="#000000" d="M635.968,-647.9883C631.5491,-617.5264 625.4476,-554.2459 641,-504 645.3977,-489.7921 654.8316,-475.8792 662.9388,-465.7345"/>
</g>
<!-- 29&#45;&#45;31 -->
<g id="edge59" class="edge">
<title>29&#45;&#45;31</title>
<path fill="none" stroke="#000000" d="M329.9246,-510.4011C334.7723,-508.0362 339.9832,-505.742 345,-504 427.5296,-475.3424 530.3429,-459.5223 578.1887,-453.2371"/>
</g>
<!-- 29&#45;&#45;40 -->
<g id="edge60" class="edge">
<title>29&#45;&#45;40</title>
<path fill="none" stroke="#000000" d="M310.7334,-503.9143C313.0212,-473.3433 314.9771,-409.9062 298,-360 293.2101,-345.9195 283.7885,-332.0026 275.7851,-321.8241"/>
</g>
<!-- 55 -->
<g id="node60" class="node">
<title>55</title>
<ellipse fill="none" stroke="#000000" cx="635" cy="-378" rx="27" ry="18"/>
<text text-anchor="middle" x="635" y="-374.3" font-family="Times,serif" font-size="14.00" fill="#000000">55</text>
</g>
<!-- 31&#45;&#45;55 -->
<g id="edge62" class="edge">
<title>31&#45;&#45;55</title>
<path fill="none" stroke="#000000" d="M612.2622,-432.5708C616.9442,-421.3339 623.0114,-406.7727 627.7007,-395.5182"/>
</g>
<!-- 55&#45;&#45;56 -->
<g id="edge93" class="edge">
<title>55&#45;&#45;56</title>
<path fill="none" stroke="#000000" d="M661.4492,-374.2806C749.5012,-361.8983 1032.1305,-322.1535 1120.4017,-309.7404"/>
</g>
<!-- 57 -->
<g id="node66" class="node">
<title>57</title>
<ellipse fill="none" stroke="#000000" cx="354" cy="-306" rx="27" ry="18"/>
<text text-anchor="middle" x="354" y="-302.3" font-family="Times,serif" font-size="14.00" fill="#000000">57</text>
</g>
<!-- 55&#45;&#45;57 -->
<g id="edge94" class="edge">
<title>55&#45;&#45;57</title>
<path fill="none" stroke="#000000" d="M614.0595,-366.4462C609.2127,-364.079 604.0061,-361.7725 599,-360 522.0162,-332.7426 426.3734,-316.4452 380.7014,-309.6751"/>
</g>
<!-- 56&#45;&#45;59 -->
<g id="edge95" class="edge">
<title>56&#45;&#45;59</title>
<path fill="none" stroke="#000000" d="M1147,-287.7623C1147,-260.0633 1147,-207.7005 1147,-180.0896"/>
</g>
<!-- 61&#45;&#45;63 -->
<g id="edge101" class="edge">
<title>61&#45;&#45;63</title>
<path fill="none" stroke="#000000" d="M1257,-431.8314C1257,-421 1257,-407.2876 1257,-396.4133"/>
</g>
<!-- 68 -->
<g id="node76" class="node">
<title>68</title>
<ellipse fill="none" stroke="#000000" cx="1312" cy="-90" rx="27" ry="18"/>
<text text-anchor="middle" x="1312" y="-86.3" font-family="Times,serif" font-size="14.00" fill="#000000">68</text>
</g>
<!-- 67&#45;&#45;68 -->
<g id="edge109" class="edge">
<title>67&#45;&#45;68</title>
<path fill="none" stroke="#000000" d="M1312,-215.7623C1312,-188.0633 1312,-135.7005 1312,-108.0896"/>
</g>
<!-- 39&#45;&#45;40 -->
<g id="edge73" class="edge">
<title>39&#45;&#45;40</title>
<path fill="none" stroke="#000000" d="M262,-359.8314C262,-349 262,-335.2876 262,-324.4133"/>
</g>
<!-- 39&#45;&#45;57 -->
<g id="edge74" class="edge">
<title>39&#45;&#45;57</title>
<path fill="none" stroke="#000000" d="M279.7385,-364.1177C296.0296,-351.3681 320.0421,-332.5758 336.3159,-319.8397"/>
</g>
<!-- 57&#45;&#45;58 -->
<g id="edge96" class="edge">
<title>57&#45;&#45;58</title>
<path fill="none" stroke="#000000" d="M354,-287.8314C354,-277 354,-263.2876 354,-252.4133"/>
</g>
<!-- 75&#45;&#45;79 -->
<g id="edge117" class="edge">
<title>75&#45;&#45;79</title>
<path fill="none" stroke="#000000" d="M622,-287.8314C622,-277 622,-263.2876 622,-252.4133"/>
</g>
<!-- 75&#45;&#45;77 -->
<g id="edge116" class="edge">
<title>75&#45;&#45;77</title>
<path fill="none" stroke="#000000" d="M648.3732,-301.6045C725.5881,-288.7353 950.5744,-251.2376 1027.6981,-238.3836"/>
</g>
<!-- 48&#45;&#45;51 -->
<g id="edge85" class="edge">
<title>48&#45;&#45;51</title>
<path fill="none" stroke="#000000" d="M863.2022,-432.2022C865.8177,-421.1252 869.1698,-406.928 871.7872,-395.8425"/>
</g>
<!-- 71&#45;&#45;74 -->
<g id="edge113" class="edge">
<title>71&#45;&#45;74</title>
<path fill="none" stroke="#000000" d="M727.5525,-438.5855C722.8229,-436.2637 717.7928,-433.9408 713,-432 663.7517,-412.0571 648.2483,-415.9429 599,-396 594.2072,-394.0592 589.1771,-391.7363 584.4475,-389.4145"/>
</g>
<!-- 51&#45;&#45;54 -->
<g id="edge89" class="edge">
<title>51&#45;&#45;54</title>
<path fill="none" stroke="#000000" d="M876,-359.8314C876,-349 876,-335.2876 876,-324.4133"/>
</g>
<!-- 53&#45;&#45;54 -->
<g id="edge91" class="edge">
<title>53&#45;&#45;54</title>
<path fill="none" stroke="#000000" d="M947.4165,-363.7751C931.7122,-351.0706 908.8441,-332.5705 893.2442,-319.9503"/>
</g>
<!-- 78 -->
<g id="node74" class="node">
<title>78</title>
<ellipse fill="none" stroke="#000000" cx="965" cy="-306" rx="27" ry="18"/>
<text text-anchor="middle" x="965" y="-302.3" font-family="Times,serif" font-size="14.00" fill="#000000">78</text>
</g>
<!-- 53&#45;&#45;78 -->
<g id="edge92" class="edge">
<title>53&#45;&#45;78</title>
<path fill="none" stroke="#000000" d="M965,-359.8314C965,-349 965,-335.2876 965,-324.4133"/>
</g>
<!-- 78&#45;&#45;79 -->
<g id="edge120" class="edge">
<title>78&#45;&#45;79</title>
<path fill="none" stroke="#000000" d="M941.2117,-297.1101C932.1545,-293.9404 921.6835,-290.532 912,-288 816.3745,-262.9963 700.1057,-245.0013 648.6709,-237.6586"/>
</g>
<!-- 59&#45;&#45;68 -->
<g id="edge98" class="edge">
<title>59&#45;&#45;68</title>
<path fill="none" stroke="#000000" d="M1169.5966,-152.1397C1201.0173,-138.4288 1257.5899,-113.7426 1289.1468,-99.9723"/>
</g>
<!-- 68&#45;&#45;69 -->
<g id="edge110" class="edge">
<title>68&#45;&#45;69</title>
<path fill="none" stroke="#000000" d="M1333.8379,-79.3762C1361.8197,-65.7634 1410.0475,-42.3012 1438.0725,-28.6674"/>
</g>
<!-- 64 -->
<g id="node80" class="node">
<title>64</title>
<ellipse fill="none" stroke="#000000" cx="1257" cy="-306" rx="27" ry="18"/>
<text text-anchor="middle" x="1257" y="-302.3" font-family="Times,serif" font-size="14.00" fill="#000000">64</text>
</g>
<!-- 63&#45;&#45;64 -->
<g id="edge104" class="edge">
<title>63&#45;&#45;64</title>
<path fill="none" stroke="#000000" d="M1257,-359.8314C1257,-349 1257,-335.2876 1257,-324.4133"/>
</g>
<!-- 76&#45;&#45;78 -->
<g id="edge119" class="edge">
<title>76&#45;&#45;78</title>
<path fill="none" stroke="#000000" d="M1087.1295,-367.0647C1059.9066,-353.4533 1013.703,-330.3515 986.6045,-316.8022"/>
</g>
<!-- 76&#45;&#45;77 -->
<g id="edge118" class="edge">
<title>76&#45;&#45;77</title>
<path fill="none" stroke="#000000" d="M1102.2559,-360.3428C1091.6999,-332.7053 1071.3891,-279.5278 1060.7992,-251.8017"/>
</g>
<!-- 64&#45;&#45;66 -->
<g id="edge105" class="edge">
<title>64&#45;&#45;66</title>
<path fill="none" stroke="#000000" d="M1252.7978,-288.2022C1250.1823,-277.1252 1246.8302,-262.928 1244.2128,-251.8425"/>
</g>
<!-- 64&#45;&#45;67 -->
<g id="edge106" class="edge">
<title>64&#45;&#45;67</title>
<path fill="none" stroke="#000000" d="M1269.4804,-289.6621C1278.4814,-277.8788 1290.5793,-262.0416 1299.569,-250.2733"/>
</g>
</g>
</svg>
